<?xml version="1.0" encoding="UTF-8"?>
<svg id="Layer_1" data-name="Layer 1" xmlns="http://www.w3.org/2000/svg" viewBox="0 0 500 500">
  <defs>
    <style>
      .cls-1 {
        opacity: .12;
      }

      .cls-1, .cls-2 {
        fill: #e8e0d0;
      }

      .cls-3 {
        fill: #202c2c;
      }
    </style>
  </defs>
  <rect class="cls-3" width="500" height="500" rx="76.06" ry="76.06"/>
  <g>
    <rect class="cls-1" x="114.02" y="-53.75" width="6.13" height="610.47"/>
    <rect class="cls-1" x="246.94" y="-53.75" width="6.13" height="610.47"/>
    <rect class="cls-1" x="377.41" y="-53.75" width="6.13" height="610.47"/>
    <rect class="cls-1" x="-56.45" y="380.11" width="610.47" height="6.13"/>
    <rect class="cls-1" x="-56.45" y="247.2" width="610.47" height="6.13"/>
    <rect class="cls-1" x="-56.45" y="116.73" width="610.47" height="6.13"/>
  </g>
  <path class="cls-2" d="M351.81,104.21c25.64,0,38.46,13.55,38.46,40.66,1.46,9.77,2.2,17.58,2.2,23.44,0,16.36-.73,41.27-2.2,74.73,1.46,60.2,3.66,103,6.59,128.39,0,12.82-13.55,19.23-40.66,19.23,0,1.95-11.42,4.09-34.25,6.41-12.82,0-19.23-18.56-19.23-55.68-1.46-30.28-2.2-48.11-2.2-53.48-7.45,2.69-24.54,19.11-51.28,49.27-3.42,2.81-6.23,4.21-8.42,4.21-14.9-6.23-29.85-16.91-44.87-32.05,1.34,16.73,2.01,28.88,2.01,36.45,0,39.81-4.95,59.71-14.84,59.71l-21.43-2.01h-34.25c-7.57,0-12.52-2.87-14.84-8.61,0-18.56,4.95-27.84,14.84-27.84,4.27,0,6.41,4.28,6.41,12.82,18.56-24.18,32.84-36.26,42.86-36.26h2.01c0-21.37-2.14-32.05-6.41-32.05l-27.66,25.64h-8.61c-3.54,0-5.68-2.87-6.41-8.61,17.09-21,50.55-50.18,100.37-87.55h10.81c7.33-11.72,32.24-33.09,74.73-64.1,23.56-27.11,41.39-40.66,53.48-40.66l-2.2-10.62h-32.05v2.01c7.08.98,10.62,4.58,10.62,10.81,0,2.81-11.36,12.76-34.07,29.85-18.44,18.44-31.99,27.72-40.66,27.84h-2.2c-2.08,0-4.21-2.87-6.41-8.61,0-2.68,17.83-18.38,53.48-47.07,6.96-7.08,12.64-10.62,17.03-10.62v-2.2h-2.01c-41.39,3.54-62.09,8.55-62.09,15.02-7.94,57.02-16.48,85.53-25.64,85.53h-2.01c-5.74-1.47-8.61-5.07-8.61-10.81-29.79,19.54-51.9,36.63-66.3,51.28-8.91,14.29-17.46,21.43-25.64,21.43-4.28-4.64-6.41-8.18-6.41-10.62,25.4-35.78,55.31-60.75,89.75-74.91l4.4,2.2c-4.28-9.4-6.41-15.81-6.41-19.23-9.77.12-37.55,17.95-83.34,53.48-5.74,0-8.61,5.68-8.61,17.03-3.18,74.12-8.18,111.17-15.02,111.17h-6.41c-2.08,0-4.21-2.13-6.41-6.41v-4.21c5.74-44.57,8.61-88.03,8.61-130.41-4.28-44.08-6.41-71.18-6.41-81.32.98-4.27,3.85-7.08,8.61-8.42l8.43,2.01c33.82-9.89,65.2-14.84,94.14-14.84,7.94,0,15.75,19.23,23.44,57.69h4.21c3.91-44.2,11.05-66.3,21.43-66.3,2.81,0,31.99-4.27,87.55-12.82ZM138.25,155.49h-15.02l2.2,15.02v17.03c.37,2.81,1.77,4.21,4.21,4.21l38.46-42.68h-2.2c-15.02,4.28-24.24,6.41-27.66,6.41ZM129.64,213.19v8.61h2.2c39.93-31.5,67.7-49.33,83.34-53.48-4.28-12.09-6.41-19.9-6.41-23.44h-4.4c-8.55,0-12.82,4.28-12.82,12.82-3.79,0-20.15,15.63-49.09,46.89-5.74,5.74-10.01,8.61-12.82,8.61ZM159.49,384.26h17.22v-8.61l2.01-10.62c-1.83,0-8.24,6.41-19.23,19.23ZM238.62,270.88l-12.82-2.2c-15.63,13.07-23.44,20.21-23.44,21.43,2.81,0,9.89,5.68,21.25,17.03h2.2c8.67-13.55,28.63-31.32,59.89-53.3,36.26-32.85,59.04-49.27,68.32-49.27h2.2c2.08,0,4.21,2.14,6.41,6.41,0,7.69-8.55,15.57-25.64,23.63-10.62,11.36-17.77,17.03-21.43,17.03,2.32,3.42,4.46,9.1,6.41,17.03-1.46,7.82-2.2,14.23-2.2,19.23v12.82h2.2c5.98-6.84,22.34-22.46,49.09-46.89,0-5.49.73-35.41,2.2-89.75l-2.2-10.81c-7.57,4.03-30.34,23.99-68.32,59.89-10.38,2.32-31.75,21.55-64.1,57.69ZM324.15,319.97c0-1.34-.73-2.01-2.2-2.01v4.21c1.47,30.28,2.2,48.11,2.2,53.48h2.01c10.62,0,27.72-2.87,51.28-8.61-2.81-5.5-4.21-13.31-4.21-23.44v-21.43l-32.05,21.43c-5.74-2.2-8.61-4.33-8.61-6.41v-8.61c16.12-18.56,28.94-27.84,38.46-27.84v-19.23c-28.33,25.64-43.96,38.46-46.89,38.46Z"/>
</svg>