<?xml version="1.0" encoding="UTF-8"?>
<svg id="Layer_1" data-name="Layer 1" xmlns="http://www.w3.org/2000/svg" viewBox="0 0 608.96 592.89">
  <defs>
    <style>
      .cls-1 {
        fill: #f99c1c;
      }
    </style>
  </defs>
  <path class="cls-1" d="M119.7,1.61c1.07-1.07,6.15-1.61,15.26-1.61,33.2,0,51.68,1.88,55.43,5.62,3.21,3.21,4.82,22.49,4.82,57.84s1.33,53.02,4.02,53.02,14.72-5.75,36.15-17.27c21.42-11.51,36.15-20.21,44.19-26.11,26.24-19.28,45.52-28.92,57.84-28.92,1.61,0,2.67.28,3.21.8,1.61,1.61,2.41,10.98,2.41,28.12v16.87l-.8,40.17-19.28,14.46c-8.03,5.9-32.67,19.28-73.91,40.17-23.57,11.79-38.44,19.96-44.59,24.5-6.16,4.56-9.78,9.78-10.85,15.67-2.15,11.79-3.21,20.89-3.21,27.31,0,20.36,2.94,30.53,8.84,30.53,2.67,0,25.17-11.37,67.48-34.14,42.3-22.76,63.73-35.21,64.27-37.36,2.13-3.74,28.65-18.2,79.53-43.38,13.38-6.95,22.49-10.44,27.31-10.44,2.13,0,3.74.54,4.82,1.61,3.21,2.69,4.82,28.12,4.82,76.32v39.37c0,8.57.4,15.54,1.21,20.89.8,5.36,1.61,8.57,2.41,9.64.8,1.08,2.01,1.61,3.62,1.61,5.89,0,41.24-18.48,106.04-55.43,9.64-5.89,16.87-8.84,21.69-8.84,1.07,0,2.67.54,4.82,1.61,4.28,2.69,8.96,11.25,14.06,25.71,5.08,14.46,7.63,26.51,7.63,36.15,0,8.03-4.56,15.14-13.66,21.29-9.11,6.16-34.54,20.22-76.32,42.18-39.1,20.89-60.53,32.94-64.27,36.15-3.21,2.69-5.22,9.24-6.03,19.68-.8,10.44-1.21,34.68-1.21,72.71,0,56.76-1.61,86.76-4.82,89.98-3.21,3.21-13.13,4.82-29.72,4.82s-27.32-1.61-30.53-4.82-4.82-25.98-4.82-68.29v-8.03c0-23.02-.54-38.02-1.61-44.99-1.08-6.95-3.75-10.44-8.03-10.44-3.75,0-13.13,4.02-28.12,12.05-51.96,27.85-80.61,41.78-85.96,41.78-3.21,0-4.82-14.99-4.82-44.99v-44.99c13.38-6.95,33.2-17.27,59.45-30.93,26.23-13.66,45.79-23.96,58.65-30.93l.8-37.76v-20.08c0-7.49-.4-12.31-1.21-14.46-.8-2.13-2.55-3.21-5.22-3.21-5.36,0-9.11,1.08-11.25,3.21-4.29,3.21-59.45,32.41-165.5,87.57-33.21,17.15-52.5,25.71-57.84,25.71h-.8c-3.75-1.61-5.62-25.43-5.62-71.5s-1.88-71.22-5.62-72.3h-.8c-7.51,0-25.44,8.03-53.83,24.1-29.46,15.54-46.6,23.3-51.42,23.3-1.61,0-2.69-.26-3.21-.8-3.75-3.21-5.62-14.72-5.62-34.55,0-27.84,2.41-43.65,7.23-47.4,5.89-4.82,24.9-14.99,57.04-30.53l49.81-24.9,2.41-81.14L119.7,1.61Z"/>
</svg>